<svg id="svg" version="1.1" xmlns="http://www.w3.org/2000/svg" xmlns:xlink="http://www.w3.org/1999/xlink" width="400" height="400" viewBox="0, 0, 400,400"><g id="svgg"><path id="path0" d="M41.542 36.590 C 33.526 38.044,29.013 43.522,29.010 51.800 C 29.008 58.866,31.016 61.888,38.600 66.232 C 42.733 68.600,46.636 71.116,48.429 72.567 C 48.994 73.025,50.067 73.850,50.812 74.400 C 54.321 76.989,58.848 81.436,62.630 86.006 C 69.011 93.720,79.109 99.652,96.800 106.079 C 98.010 106.518,99.360 107.019,99.800 107.191 C 100.240 107.363,102.490 108.086,104.800 108.796 C 107.110 109.506,109.413 110.248,109.919 110.444 C 112.821 111.569,112.817 111.608,110.771 103.500 C 110.535 102.565,110.245 101.213,110.127 100.496 C 110.008 99.779,109.751 99.094,109.556 98.973 C 109.360 98.852,109.200 98.311,109.200 97.771 C 109.200 97.231,109.038 96.477,108.839 96.095 C 108.640 95.713,108.263 94.590,108.000 93.600 C 107.737 92.610,107.360 91.487,107.161 91.105 C 106.962 90.723,106.800 90.162,106.800 89.859 C 106.800 89.555,106.453 88.428,106.029 87.353 C 105.606 86.279,104.587 83.600,103.766 81.400 C 101.840 76.239,98.212 68.562,96.014 65.000 C 95.064 63.460,94.087 61.838,93.843 61.395 C 91.053 56.331,81.695 46.542,77.600 44.403 C 77.050 44.115,76.510 43.768,76.400 43.630 C 75.943 43.060,69.208 39.988,66.800 39.251 C 58.003 36.560,47.694 35.474,41.542 36.590 M25.800 81.148 C 23.930 82.309,22.950 83.637,22.455 85.677 C 21.771 88.499,21.813 175.277,22.500 177.890 C 23.762 182.688,29.493 184.697,37.200 183.042 C 40.743 182.281,44.787 180.679,45.133 179.900 C 45.207 179.735,45.504 179.600,45.794 179.600 C 46.084 179.600,48.873 177.167,51.992 174.193 C 59.320 167.207,64.764 163.689,70.800 162.038 C 71.790 161.767,73.153 161.378,73.828 161.173 C 74.504 160.968,75.854 160.799,76.828 160.798 C 83.693 160.789,84.769 158.446,81.212 151.253 C 78.697 146.167,77.349 143.278,76.803 141.800 C 76.640 141.360,76.309 140.550,76.067 140.000 C 75.110 137.827,73.288 131.651,72.821 129.000 C 71.463 121.283,70.275 118.121,65.960 110.731 C 62.044 104.027,53.021 93.897,46.410 88.784 C 45.425 88.023,44.389 87.187,44.108 86.926 C 43.826 86.666,43.236 86.338,42.798 86.199 C 42.359 86.060,42.000 85.806,42.000 85.634 C 42.000 85.224,35.136 81.828,32.686 81.026 C 30.089 80.176,27.285 80.226,25.800 81.148 M82.089 110.623 C 77.818 114.051,77.953 116.972,82.947 129.200 C 85.059 134.370,86.970 138.913,87.193 139.295 C 87.417 139.677,87.600 140.181,87.600 140.417 C 87.600 140.806,90.185 144.820,91.428 146.362 C 91.711 146.713,93.424 148.980,95.234 151.400 C 103.740 162.774,114.557 174.126,125.031 182.674 C 135.140 190.923,150.782 198.526,154.871 197.177 C 159.497 195.650,160.326 192.372,158.000 184.800 C 157.831 184.250,157.471 182.990,157.200 182.000 C 156.929 181.010,156.569 179.750,156.400 179.200 C 156.231 178.650,155.895 177.480,155.652 176.600 C 152.545 165.313,150.504 158.875,149.185 156.200 C 146.498 150.752,146.345 150.575,126.246 129.803 C 120.501 123.865,115.260 118.448,114.600 117.766 C 113.803 116.942,112.728 116.375,111.400 116.079 C 110.300 115.834,106.340 114.978,102.600 114.176 C 96.545 112.878,90.963 111.521,86.800 110.333 C 83.916 109.511,83.439 109.540,82.089 110.623 M132.653 127.275 C 131.507 127.915,132.069 128.816,135.200 131.360 C 143.228 137.883,150.090 146.103,153.515 153.300 C 155.536 157.547,157.271 161.328,157.598 162.200 C 157.763 162.640,158.304 163.900,158.800 165.000 C 159.296 166.100,159.834 167.360,159.997 167.800 C 160.160 168.240,160.497 169.095,160.746 169.700 C 160.996 170.305,161.380 171.250,161.600 171.800 C 161.820 172.350,162.165 173.205,162.367 173.700 C 162.569 174.195,163.334 176.189,164.067 178.132 C 166.923 185.701,168.771 182.589,168.793 170.173 C 168.815 157.594,154.440 137.041,140.600 129.863 C 137.244 128.122,133.384 126.865,132.653 127.275 M94.225 159.959 C 93.927 160.442,97.201 168.303,98.798 170.938 C 102.092 176.372,112.742 185.196,119.969 188.478 C 121.416 189.135,122.900 189.828,123.266 190.018 C 123.698 190.243,124.083 190.182,124.363 189.844 C 124.695 189.444,123.848 188.460,120.697 185.586 C 115.334 180.692,101.303 166.644,97.840 162.700 C 95.145 159.632,94.657 159.261,94.225 159.959 M85.693 179.100 C 84.807 179.925,82.039 182.849,79.541 185.598 C 77.044 188.346,74.640 190.969,74.200 191.426 C 59.339 206.856,57.258 209.913,53.015 222.541 C 49.841 231.986,49.801 233.452,52.685 234.766 C 55.587 236.088,57.464 235.009,64.404 228.030 C 69.148 223.259,77.200 213.046,77.200 211.800 C 77.200 211.659,77.728 210.776,78.374 209.838 C 81.271 205.627,87.734 190.896,90.020 183.292 C 91.511 178.333,89.062 175.961,85.693 179.100 " stroke="none" fill="#9babcb" fill-rule="evenodd"></path><path id="path1" d="M27.000 22.000 C 26.864 22.220,26.353 22.400,25.865 22.400 C 25.376 22.400,24.717 22.760,24.400 23.200 C 24.083 23.640,23.585 24.000,23.293 24.000 C 22.648 24.000,19.200 27.333,19.200 27.956 C 19.200 28.200,19.020 28.400,18.800 28.400 C 18.580 28.400,18.400 28.760,18.400 29.200 C 18.400 29.640,18.220 30.000,18.000 30.000 C 17.780 30.000,17.600 30.529,17.600 31.176 C 17.600 31.823,17.420 32.464,17.200 32.600 C 16.934 32.764,16.800 88.404,16.800 198.224 C 16.800 308.208,16.934 363.600,17.200 363.600 C 17.420 363.600,17.600 364.140,17.600 364.800 C 17.600 365.460,17.780 366.000,18.000 366.000 C 18.220 366.000,18.400 366.360,18.400 366.800 C 18.400 367.240,18.580 367.600,18.800 367.600 C 19.020 367.600,19.200 367.884,19.200 368.231 C 19.200 368.987,22.085 371.846,23.207 372.202 C 23.643 372.341,24.000 372.582,24.000 372.740 C 24.000 373.387,28.021 374.200,31.200 374.195 C 34.855 374.190,36.363 373.756,39.072 371.928 C 39.992 371.308,40.937 370.800,41.172 370.800 C 41.407 370.800,41.600 370.620,41.600 370.400 C 41.600 370.180,41.836 370.000,42.125 370.000 C 42.413 370.000,43.036 369.640,43.508 369.200 C 43.980 368.760,44.604 368.400,44.895 368.400 C 45.186 368.400,45.683 368.040,46.000 367.600 C 46.317 367.160,46.857 366.800,47.200 366.800 C 47.543 366.800,48.083 366.440,48.400 366.000 C 48.717 365.560,49.198 365.200,49.469 365.200 C 50.054 365.200,56.000 359.339,56.000 358.763 C 56.000 358.544,56.450 357.880,57.000 357.287 C 57.550 356.693,58.000 355.981,58.000 355.704 C 58.000 355.427,58.180 355.200,58.400 355.200 C 58.620 355.200,58.800 354.840,58.800 354.400 C 58.800 353.960,58.980 353.600,59.200 353.600 C 59.420 353.600,59.600 353.240,59.600 352.800 C 59.600 352.360,59.780 352.000,60.000 352.000 C 60.220 352.000,60.400 351.640,60.400 351.200 C 60.400 350.760,60.580 350.400,60.800 350.400 C 61.020 350.400,61.200 349.860,61.200 349.200 C 61.200 348.540,61.380 348.000,61.600 348.000 C 61.820 348.000,62.000 347.471,62.000 346.824 C 62.000 346.177,62.180 345.536,62.400 345.400 C 62.620 345.264,62.800 344.353,62.800 343.376 C 62.800 342.399,62.980 341.600,63.200 341.600 C 63.422 341.600,63.600 340.541,63.600 339.224 C 63.600 337.917,63.780 336.736,64.000 336.600 C 64.220 336.464,64.400 335.384,64.400 334.200 C 64.400 333.016,64.580 331.936,64.800 331.800 C 65.020 331.664,65.200 330.584,65.200 329.400 C 65.200 328.216,65.380 327.136,65.600 327.000 C 65.820 326.864,66.000 325.673,66.000 324.353 C 66.000 322.855,66.150 322.046,66.400 322.200 C 66.650 322.354,66.800 321.537,66.800 320.024 C 66.800 318.675,66.977 317.600,67.200 317.600 C 67.422 317.600,67.600 316.533,67.600 315.200 C 67.600 313.867,67.778 312.800,68.000 312.800 C 68.222 312.800,68.400 311.733,68.400 310.400 C 68.400 309.067,68.578 308.000,68.800 308.000 C 69.020 308.000,69.200 307.021,69.200 305.824 C 69.200 304.627,69.380 303.536,69.600 303.400 C 69.820 303.264,70.000 302.184,70.000 301.000 C 70.000 299.816,70.180 298.736,70.400 298.600 C 70.620 298.464,70.800 297.409,70.800 296.256 C 70.800 295.103,70.988 293.972,71.218 293.742 C 71.503 293.457,71.565 286.989,71.415 273.362 C 71.114 246.179,71.113 245.008,71.408 241.700 C 71.550 240.105,71.831 238.800,72.033 238.800 C 72.235 238.800,72.401 238.395,72.402 237.900 C 72.403 237.405,72.965 235.470,73.650 233.600 C 74.336 231.730,74.986 229.795,75.095 229.300 C 75.204 228.805,75.452 228.400,75.647 228.400 C 75.841 228.400,76.000 228.080,76.000 227.688 C 76.000 227.297,76.360 226.717,76.800 226.400 C 77.240 226.083,77.600 225.596,77.600 225.319 C 77.600 224.721,78.562 223.615,83.500 218.538 C 85.535 216.446,87.200 214.545,87.200 214.314 C 87.200 214.083,87.535 213.603,87.945 213.247 C 88.354 212.891,89.184 211.653,89.788 210.497 C 90.393 209.340,91.048 208.294,91.244 208.173 C 91.440 208.052,91.600 207.603,91.600 207.176 C 91.600 206.749,91.780 206.400,92.000 206.400 C 92.220 206.400,92.400 206.051,92.400 205.624 C 92.400 205.197,92.580 204.736,92.800 204.600 C 93.020 204.464,93.200 204.003,93.200 203.576 C 93.200 203.149,93.380 202.800,93.600 202.800 C 93.820 202.800,94.000 202.440,94.000 202.000 C 94.000 201.560,94.180 201.200,94.400 201.200 C 94.620 201.200,94.800 200.660,94.800 200.000 C 94.800 199.340,94.980 198.800,95.200 198.800 C 95.420 198.800,95.600 198.440,95.600 198.000 C 95.600 197.560,95.780 197.200,96.000 197.200 C 96.220 197.200,96.400 196.660,96.400 196.000 C 96.400 195.340,96.580 194.800,96.800 194.800 C 97.020 194.800,97.200 194.260,97.200 193.600 C 97.200 192.940,97.342 192.400,97.515 192.400 C 97.688 192.400,97.874 191.815,97.928 191.100 C 97.981 190.385,98.200 189.740,98.413 189.667 C 98.626 189.593,98.800 188.938,98.800 188.209 C 98.800 186.419,99.667 186.195,101.142 187.605 C 101.806 188.239,103.306 189.428,104.475 190.245 C 105.644 191.063,106.891 192.062,107.247 192.466 C 107.603 192.870,108.026 193.200,108.186 193.200 C 108.347 193.200,108.956 193.702,109.540 194.315 C 110.123 194.929,111.230 195.873,112.000 196.413 C 112.770 196.954,114.097 198.072,114.948 198.898 C 115.800 199.724,116.655 200.400,116.848 200.400 C 117.041 200.400,117.941 201.120,118.848 202.000 C 119.755 202.880,120.663 203.600,120.866 203.600 C 121.556 203.600,123.200 205.559,123.200 206.382 C 123.200 206.832,123.380 207.200,123.600 207.200 C 123.820 207.200,124.000 207.560,124.000 208.000 C 124.000 208.440,124.180 208.800,124.400 208.800 C 124.620 208.800,124.800 209.160,124.800 209.600 C 124.800 210.040,124.980 210.400,125.200 210.400 C 125.420 210.400,125.600 210.854,125.600 211.410 C 125.600 212.470,128.244 218.103,128.849 218.333 C 129.042 218.407,129.200 218.812,129.200 219.233 C 129.200 219.655,129.380 220.000,129.600 220.000 C 129.820 220.000,130.000 220.236,130.000 220.525 C 130.000 220.813,130.315 221.398,130.700 221.825 C 131.085 222.251,131.652 223.089,131.960 223.686 C 132.268 224.284,132.701 224.661,132.922 224.525 C 133.143 224.388,133.202 224.473,133.054 224.712 C 132.906 224.952,133.238 225.602,133.792 226.156 C 134.347 226.710,134.800 227.353,134.800 227.585 C 134.800 227.817,135.340 228.572,136.000 229.263 C 136.660 229.954,137.200 230.686,137.200 230.891 C 137.200 231.095,137.920 231.954,138.800 232.800 C 139.680 233.646,140.400 234.547,140.400 234.803 C 140.400 235.383,151.455 246.400,152.038 246.400 C 152.271 246.400,153.148 247.113,153.985 247.985 C 154.823 248.856,155.752 249.621,156.050 249.685 C 156.348 249.748,157.071 250.295,157.657 250.900 C 158.242 251.505,159.039 252.000,159.427 252.000 C 159.816 252.000,160.014 252.119,159.868 252.265 C 159.591 252.542,163.287 255.200,163.951 255.200 C 164.161 255.200,164.393 255.357,164.467 255.549 C 164.647 256.021,168.619 258.000,169.387 258.000 C 169.724 258.000,170.000 258.180,170.000 258.400 C 170.000 258.620,170.360 258.800,170.800 258.800 C 171.240 258.800,171.600 258.980,171.600 259.200 C 171.600 259.420,171.960 259.600,172.400 259.600 C 172.840 259.600,173.200 259.780,173.200 260.000 C 173.200 260.220,173.560 260.400,174.000 260.400 C 174.440 260.400,174.800 260.546,174.800 260.725 C 174.800 260.904,175.430 261.298,176.200 261.600 C 176.970 261.902,177.600 262.296,177.600 262.475 C 177.600 262.654,177.949 262.800,178.376 262.800 C 178.803 262.800,179.264 262.980,179.400 263.200 C 179.536 263.420,179.997 263.600,180.424 263.600 C 180.851 263.600,181.200 263.780,181.200 264.000 C 181.200 264.220,181.650 264.400,182.200 264.400 C 182.750 264.400,183.200 264.580,183.200 264.800 C 183.200 265.020,183.560 265.200,184.000 265.200 C 184.440 265.200,184.800 265.380,184.800 265.600 C 184.800 265.820,185.340 266.000,186.000 266.000 C 186.660 266.000,187.200 266.180,187.200 266.400 C 187.200 266.620,187.560 266.800,188.000 266.800 C 188.440 266.800,188.800 266.980,188.800 267.200 C 188.800 267.420,189.340 267.600,190.000 267.600 C 190.660 267.600,191.200 267.780,191.200 268.000 C 191.200 268.220,191.560 268.400,192.000 268.400 C 192.440 268.400,192.800 268.580,192.800 268.800 C 192.800 269.020,193.239 269.200,193.776 269.200 C 194.313 269.200,194.864 269.380,195.000 269.600 C 195.136 269.820,195.687 270.000,196.224 270.000 C 196.761 270.000,197.200 270.141,197.200 270.313 C 197.200 270.485,198.055 270.875,199.100 271.180 C 200.145 271.485,201.270 271.865,201.600 272.024 C 202.901 272.651,211.245 275.200,211.999 275.200 C 212.440 275.200,212.800 275.380,212.800 275.600 C 212.800 275.820,213.340 276.000,214.000 276.000 C 214.660 276.000,215.200 276.180,215.200 276.400 C 215.200 276.620,215.740 276.800,216.400 276.800 C 217.060 276.800,217.600 276.980,217.600 277.200 C 217.600 277.420,218.140 277.600,218.800 277.600 C 219.460 277.600,220.000 277.780,220.000 278.000 C 220.000 278.220,220.540 278.400,221.200 278.400 C 221.860 278.400,222.400 278.580,222.400 278.800 C 222.400 279.020,222.940 279.200,223.600 279.200 C 224.260 279.200,224.800 279.380,224.800 279.600 C 224.800 279.820,225.329 280.000,225.976 280.000 C 226.623 280.000,227.264 280.180,227.400 280.400 C 227.536 280.620,228.177 280.800,228.824 280.800 C 229.471 280.800,230.000 280.980,230.000 281.200 C 230.000 281.420,230.540 281.600,231.200 281.600 C 231.860 281.600,232.400 281.780,232.400 282.000 C 232.400 282.220,232.940 282.400,233.600 282.400 C 234.260 282.400,234.800 282.580,234.800 282.800 C 234.800 283.020,235.340 283.200,236.000 283.200 C 236.660 283.200,237.200 283.380,237.200 283.600 C 237.200 283.820,237.740 284.000,238.400 284.000 C 239.060 284.000,239.600 284.180,239.600 284.400 C 239.600 284.620,240.140 284.800,240.800 284.800 C 241.460 284.800,242.000 284.980,242.000 285.200 C 242.000 285.420,242.265 285.600,242.588 285.600 C 244.566 285.600,253.600 292.557,253.600 294.080 C 253.600 294.379,253.960 294.883,254.400 295.200 C 254.840 295.517,255.200 296.097,255.200 296.488 C 255.200 296.880,255.380 297.200,255.600 297.200 C 255.820 297.200,256.000 297.560,256.000 298.000 C 256.000 298.440,256.180 298.800,256.400 298.800 C 256.620 298.800,256.800 299.340,256.800 300.000 C 256.800 300.660,256.980 301.200,257.200 301.200 C 257.420 301.200,257.600 301.740,257.600 302.400 C 257.600 303.060,257.780 303.600,258.000 303.600 C 258.220 303.600,258.400 304.061,258.400 304.624 C 258.400 305.295,258.559 305.549,258.862 305.362 C 259.160 305.177,259.214 305.253,259.015 305.576 C 258.845 305.851,258.881 306.464,259.095 306.938 C 260.903 310.947,261.440 311.988,261.700 311.994 C 261.865 311.997,262.000 312.225,262.001 312.500 C 262.001 312.775,262.541 313.630,263.200 314.400 C 263.859 315.170,264.399 315.985,264.399 316.212 C 264.400 316.438,264.760 316.883,265.200 317.200 C 265.640 317.517,266.000 318.031,266.000 318.341 C 266.000 318.652,266.316 319.197,266.703 319.553 C 267.089 319.909,267.660 320.695,267.970 321.300 C 268.281 321.905,268.685 322.400,268.868 322.400 C 269.050 322.400,269.200 322.630,269.200 322.912 C 269.200 323.193,269.560 323.683,270.000 324.000 C 270.440 324.317,270.800 324.825,270.800 325.128 C 270.800 325.431,271.340 326.183,272.000 326.800 C 272.660 327.417,273.200 328.169,273.200 328.472 C 273.200 328.775,273.560 329.283,274.000 329.600 C 274.440 329.917,274.800 330.414,274.800 330.705 C 274.800 330.996,274.981 331.451,275.202 331.717 C 275.423 331.983,276.445 333.460,277.472 335.000 C 278.500 336.540,279.489 337.860,279.670 337.933 C 279.852 338.007,280.000 338.294,280.000 338.571 C 280.000 338.849,280.360 339.402,280.800 339.800 C 281.240 340.198,281.600 340.726,281.600 340.974 C 281.600 341.221,281.960 341.683,282.400 342.000 C 282.840 342.317,283.200 342.857,283.200 343.200 C 283.200 343.543,283.560 344.083,284.000 344.400 C 284.440 344.717,284.800 345.180,284.800 345.429 C 284.800 345.678,285.340 346.446,286.000 347.137 C 286.660 347.828,287.200 348.625,287.200 348.908 C 287.200 349.191,287.560 349.683,288.000 350.000 C 288.440 350.317,288.800 350.831,288.800 351.141 C 288.800 351.452,289.116 351.997,289.503 352.353 C 289.889 352.709,290.460 353.495,290.770 354.100 C 291.081 354.705,291.485 355.200,291.668 355.200 C 291.850 355.200,292.000 355.427,292.000 355.704 C 292.000 355.981,292.450 356.693,293.000 357.287 C 293.550 357.880,294.000 358.603,294.000 358.894 C 294.000 359.185,294.360 359.683,294.800 360.000 C 295.240 360.317,295.600 360.831,295.600 361.141 C 295.600 361.452,295.916 361.997,296.303 362.353 C 296.689 362.709,297.260 363.495,297.570 364.100 C 297.881 364.705,298.285 365.200,298.468 365.200 C 298.650 365.200,298.800 365.443,298.800 365.741 C 298.800 366.038,299.340 366.846,300.000 367.537 C 300.660 368.228,301.200 368.998,301.200 369.249 C 301.200 369.501,301.516 369.997,301.903 370.353 C 302.289 370.709,302.860 371.495,303.170 372.100 C 303.481 372.705,303.885 373.200,304.068 373.200 C 304.250 373.200,304.400 373.386,304.400 373.613 C 304.400 374.212,307.079 376.800,307.698 376.800 C 307.987 376.800,308.483 377.160,308.800 377.600 C 309.117 378.040,309.697 378.400,310.088 378.400 C 310.480 378.400,310.800 378.580,310.800 378.800 C 310.800 379.020,311.754 379.200,312.920 379.200 C 314.086 379.200,315.256 379.416,315.520 379.680 C 315.893 380.053,316.107 380.053,316.480 379.680 C 316.744 379.416,317.779 379.196,318.780 379.191 C 321.571 379.177,322.608 378.180,322.569 375.545 C 322.551 374.320,322.343 373.381,322.069 373.290 C 321.811 373.204,321.600 372.788,321.600 372.367 C 321.600 371.945,321.420 371.600,321.200 371.600 C 320.980 371.600,320.800 371.240,320.800 370.800 C 320.800 370.360,320.665 369.997,320.500 369.994 C 320.335 369.990,319.760 369.090,319.221 367.994 C 318.683 366.897,318.098 366.000,317.921 366.000 C 317.745 366.000,317.600 365.640,317.600 365.200 C 317.600 364.760,317.420 364.400,317.200 364.400 C 316.980 364.400,316.800 364.040,316.800 363.600 C 316.800 363.160,316.654 362.800,316.475 362.800 C 316.296 362.800,315.902 362.170,315.600 361.400 C 315.298 360.630,314.904 360.000,314.725 360.000 C 314.546 360.000,314.400 359.764,314.400 359.475 C 314.400 359.187,314.040 358.564,313.600 358.092 C 313.160 357.620,312.800 356.956,312.800 356.617 C 312.800 356.278,312.620 356.000,312.400 356.000 C 312.180 356.000,312.000 355.640,312.000 355.200 C 312.000 354.760,311.820 354.400,311.600 354.400 C 311.380 354.400,311.200 354.040,311.200 353.600 C 311.200 353.160,311.042 352.800,310.849 352.800 C 310.655 352.800,310.273 352.260,310.000 351.600 C 309.727 350.940,309.345 350.400,309.151 350.400 C 308.958 350.400,308.800 350.040,308.800 349.600 C 308.800 349.160,308.620 348.800,308.400 348.800 C 308.180 348.800,308.000 348.502,308.000 348.138 C 308.000 347.775,307.361 346.335,306.580 344.938 C 305.800 343.542,305.268 342.400,305.399 342.400 C 305.813 342.400,307.600 344.345,307.600 344.796 C 307.600 345.034,307.964 345.627,308.409 346.114 C 310.701 348.626,311.600 349.712,311.600 349.971 C 311.600 350.128,312.410 351.102,313.400 352.135 C 314.390 353.169,315.203 354.146,315.206 354.307 C 315.210 354.468,316.110 355.473,317.206 356.539 C 318.303 357.606,319.200 358.653,319.200 358.865 C 319.200 359.078,320.100 360.129,321.200 361.200 C 322.300 362.271,323.200 363.346,323.200 363.587 C 323.200 363.829,323.785 364.646,324.500 365.402 C 325.215 366.159,326.610 367.848,327.600 369.155 C 332.155 375.171,343.070 377.528,347.100 373.365 C 348.034 372.399,348.419 369.200,347.600 369.200 C 347.380 369.200,347.200 368.840,347.200 368.400 C 347.200 367.960,347.020 367.600,346.800 367.600 C 346.580 367.600,346.400 367.375,346.400 367.100 C 346.399 366.825,345.954 366.083,345.411 365.451 C 344.867 364.819,344.316 363.964,344.184 363.551 C 344.053 363.138,343.778 362.800,343.573 362.800 C 343.368 362.800,343.200 362.564,343.200 362.275 C 343.200 361.987,342.885 361.392,342.500 360.954 C 341.653 359.989,341.036 359.023,340.165 357.300 C 339.804 356.585,339.349 356.000,339.154 356.000 C 338.959 356.000,338.800 355.640,338.800 355.200 C 338.800 354.760,338.642 354.400,338.449 354.400 C 338.255 354.400,337.873 353.860,337.600 353.200 C 337.327 352.540,336.945 352.000,336.751 352.000 C 336.558 352.000,336.400 351.764,336.400 351.475 C 336.400 351.187,336.085 350.602,335.700 350.175 C 335.315 349.749,334.745 348.905,334.432 348.300 C 334.120 347.695,333.715 347.200,333.532 347.200 C 333.350 347.200,333.200 346.964,333.200 346.675 C 333.200 346.387,332.885 345.802,332.500 345.375 C 332.115 344.949,331.548 344.111,331.240 343.514 C 330.932 342.916,330.527 342.522,330.340 342.637 C 330.153 342.753,330.000 342.477,330.000 342.024 C 330.000 341.571,329.820 341.200,329.600 341.200 C 329.380 341.200,329.200 340.975,329.200 340.700 C 329.199 340.425,328.753 339.682,328.208 339.048 C 327.663 338.414,327.331 337.711,327.470 337.486 C 327.616 337.251,327.527 337.198,327.262 337.362 C 326.988 337.531,326.800 337.393,326.800 337.024 C 326.800 336.681,326.620 336.400,326.400 336.400 C 326.180 336.400,326.000 336.040,326.000 335.600 C 326.000 335.160,325.850 334.800,325.668 334.800 C 325.485 334.800,325.088 334.305,324.785 333.700 C 324.482 333.095,323.973 332.284,323.653 331.898 C 321.493 329.289,324.441 331.766,329.845 337.101 C 333.354 340.565,337.009 344.030,337.967 344.800 C 338.925 345.570,340.450 346.995,341.355 347.966 C 345.184 352.075,348.500 355.200,349.031 355.200 C 349.344 355.200,349.600 355.380,349.600 355.600 C 349.600 355.820,349.872 356.000,350.205 356.000 C 350.538 356.000,351.123 356.158,351.505 356.351 C 355.788 358.514,363.365 357.780,366.713 354.876 C 367.655 354.059,368.067 349.600,367.200 349.600 C 366.980 349.600,366.800 349.324,366.800 348.987 C 366.800 348.651,366.494 348.257,366.120 348.114 C 365.551 347.896,363.626 346.127,358.694 341.292 C 358.306 340.911,355.951 338.530,353.462 336.000 C 350.973 333.470,347.617 330.230,346.004 328.800 C 341.857 325.122,334.707 318.000,335.162 318.000 C 335.371 318.000,335.813 318.270,336.143 318.600 C 336.473 318.930,337.026 319.200,337.371 319.200 C 337.717 319.200,338.000 319.380,338.000 319.600 C 338.000 319.820,338.360 320.000,338.800 320.000 C 339.240 320.000,339.600 320.180,339.600 320.400 C 339.600 320.620,339.870 320.800,340.200 320.800 C 340.530 320.800,340.800 320.980,340.800 321.200 C 340.800 321.420,341.070 321.600,341.400 321.600 C 341.730 321.600,342.000 321.738,342.000 321.906 C 342.000 322.074,342.675 322.528,343.500 322.914 C 344.325 323.301,345.540 323.960,346.200 324.380 C 346.860 324.799,347.715 325.155,348.100 325.171 C 348.485 325.187,348.800 325.358,348.800 325.551 C 348.800 325.745,349.340 326.127,350.000 326.400 C 350.660 326.673,351.200 327.055,351.200 327.249 C 351.200 327.442,351.560 327.600,352.000 327.600 C 352.440 327.600,352.800 327.780,352.800 328.000 C 352.800 328.220,353.120 328.400,353.512 328.400 C 353.903 328.400,354.483 328.760,354.800 329.200 C 355.117 329.640,355.697 330.000,356.088 330.000 C 356.480 330.000,356.800 330.180,356.800 330.400 C 356.800 330.620,357.160 330.800,357.600 330.800 C 358.040 330.800,358.400 330.980,358.400 331.200 C 358.400 331.420,358.771 331.600,359.224 331.600 C 359.677 331.600,359.936 331.780,359.800 332.000 C 359.664 332.220,359.836 332.400,360.182 332.400 C 360.792 332.400,361.210 332.564,363.095 333.538 C 364.202 334.110,371.600 334.164,371.600 333.600 C 371.600 333.380,372.095 333.196,372.700 333.191 C 373.305 333.186,374.250 332.830,374.800 332.400 C 375.350 331.970,375.941 331.614,376.113 331.609 C 377.970 331.556,380.636 324.800,378.800 324.800 C 378.580 324.800,378.400 324.524,378.400 324.187 C 378.400 323.851,378.085 323.457,377.700 323.312 C 377.315 323.167,376.523 322.543,375.940 321.925 C 375.356 321.306,374.773 320.800,374.644 320.800 C 374.411 320.800,373.200 319.865,372.184 318.900 C 371.894 318.625,371.553 318.400,371.425 318.400 C 371.297 318.400,370.628 317.860,369.937 317.200 C 369.246 316.540,368.526 316.000,368.337 316.000 C 368.148 316.000,367.428 315.460,366.737 314.800 C 366.046 314.140,365.320 313.600,365.122 313.600 C 364.925 313.600,364.314 313.150,363.764 312.600 C 363.214 312.050,362.616 311.600,362.436 311.600 C 362.256 311.600,361.499 311.065,360.754 310.411 C 360.009 309.758,358.905 309.016,358.300 308.763 C 357.695 308.510,357.200 308.145,357.200 307.951 C 357.200 307.758,357.020 307.600,356.800 307.600 C 356.581 307.600,355.659 306.880,354.752 306.000 C 353.845 305.120,352.927 304.400,352.712 304.400 C 352.497 304.400,351.817 303.860,351.200 303.200 C 350.583 302.540,349.863 302.000,349.600 302.000 C 349.337 302.000,348.642 301.505,348.057 300.900 C 347.471 300.295,346.743 299.746,346.439 299.681 C 346.134 299.615,345.389 299.030,344.782 298.381 C 344.175 297.731,343.457 297.200,343.186 297.200 C 342.916 297.200,342.403 296.882,342.047 296.493 C 341.139 295.500,337.333 292.681,337.019 292.768 C 336.875 292.807,336.245 292.291,335.618 291.620 C 334.992 290.949,334.191 290.400,333.840 290.400 C 333.488 290.400,333.200 290.220,333.200 290.000 C 333.200 289.213,331.902 289.620,330.860 290.733 C 329.951 291.705,328.213 292.992,325.640 294.600 C 325.288 294.820,324.910 295.103,324.800 295.230 C 324.629 295.427,323.294 296.146,320.305 297.650 C 319.923 297.843,319.338 298.000,319.005 298.000 C 318.672 298.000,318.400 298.180,318.400 298.400 C 318.400 298.620,317.860 298.800,317.200 298.800 C 316.540 298.800,316.000 298.980,316.000 299.200 C 316.000 299.420,315.280 299.600,314.400 299.600 C 313.520 299.600,312.800 299.780,312.800 300.000 C 312.800 300.233,311.467 300.400,309.600 300.400 C 307.733 300.400,306.400 300.233,306.400 300.000 C 306.400 299.780,306.760 299.600,307.200 299.600 C 307.640 299.600,308.000 299.420,308.000 299.200 C 308.000 298.980,308.360 298.800,308.800 298.800 C 309.240 298.800,309.600 298.620,309.600 298.400 C 309.600 298.180,309.960 298.000,310.400 298.000 C 310.840 298.000,311.200 297.820,311.200 297.600 C 311.200 297.380,311.560 297.200,312.000 297.200 C 312.440 297.200,312.800 297.020,312.800 296.800 C 312.800 296.580,313.036 296.400,313.325 296.400 C 313.613 296.400,314.236 296.040,314.708 295.600 C 315.180 295.160,315.727 294.800,315.924 294.800 C 316.121 294.800,316.846 294.260,317.537 293.600 C 318.228 292.940,318.940 292.400,319.121 292.400 C 319.301 292.400,319.798 292.082,320.225 291.694 C 320.651 291.306,321.900 290.271,323.000 289.396 C 324.100 288.520,325.291 287.488,325.647 287.102 C 326.356 286.333,327.200 286.169,327.200 286.800 C 327.200 287.020,327.974 287.200,328.920 287.200 C 329.866 287.200,330.811 287.363,331.020 287.561 C 331.375 287.899,332.353 288.066,337.400 288.655 C 338.500 288.783,339.513 289.068,339.651 289.288 C 340.051 289.926,348.896 289.886,350.253 289.239 C 350.884 288.939,351.847 288.492,352.394 288.246 C 353.344 287.820,354.036 287.328,355.553 286.000 C 356.620 285.066,358.000 282.944,358.000 282.238 C 358.000 281.887,358.180 281.600,358.400 281.600 C 358.620 281.600,358.800 281.240,358.800 280.800 C 358.800 280.360,358.949 280.000,359.132 280.000 C 359.314 280.000,359.503 279.010,359.552 277.800 C 359.606 276.472,359.474 275.600,359.221 275.600 C 358.989 275.600,358.800 275.317,358.800 274.971 C 358.800 273.920,356.675 272.400,355.205 272.400 C 354.762 272.400,354.400 272.220,354.400 272.000 C 354.400 271.780,353.770 271.600,353.000 271.600 C 352.230 271.600,351.600 271.420,351.600 271.200 C 351.600 270.980,350.970 270.800,350.200 270.800 C 349.430 270.800,348.800 270.620,348.800 270.400 C 348.800 270.180,348.260 270.000,347.600 270.000 C 346.940 270.000,346.400 269.820,346.400 269.600 C 346.400 269.380,345.680 269.200,344.800 269.200 C 343.920 269.200,343.200 269.020,343.200 268.800 C 343.200 268.580,342.660 268.400,342.000 268.400 C 341.340 268.400,340.800 268.220,340.800 268.000 C 340.800 267.780,340.271 267.600,339.624 267.600 C 338.977 267.600,338.336 267.420,338.200 267.200 C 338.064 266.980,337.423 266.800,336.776 266.800 C 336.129 266.800,335.600 266.620,335.600 266.400 C 335.600 266.180,335.071 266.000,334.424 266.000 C 333.777 266.000,333.136 265.820,333.000 265.600 C 332.864 265.380,332.133 265.200,331.376 265.200 C 330.619 265.200,330.000 265.020,330.000 264.800 C 330.000 264.580,329.460 264.400,328.800 264.400 C 328.140 264.400,327.600 264.220,327.600 264.000 C 327.600 263.780,327.071 263.600,326.424 263.600 C 325.777 263.600,325.136 263.420,325.000 263.200 C 324.864 262.980,324.223 262.800,323.576 262.800 C 322.929 262.800,322.400 262.620,322.400 262.400 C 322.400 262.180,321.691 262.000,320.824 262.000 C 319.957 262.000,319.136 261.820,319.000 261.600 C 318.675 261.074,310.525 261.074,310.200 261.600 C 310.064 261.820,309.243 262.000,308.376 262.000 C 307.509 262.000,306.800 262.180,306.800 262.400 C 306.800 262.620,306.260 262.800,305.600 262.800 C 304.940 262.800,304.400 262.980,304.400 263.200 C 304.400 263.420,303.421 263.600,302.224 263.600 C 301.027 263.600,299.936 263.780,299.800 264.000 C 299.664 264.220,298.303 264.400,296.776 264.400 C 295.192 264.400,294.000 264.228,294.000 264.000 C 294.000 263.778,292.941 263.600,291.624 263.600 C 290.317 263.600,289.136 263.420,289.000 263.200 C 288.864 262.980,288.234 262.800,287.600 262.800 C 286.966 262.800,286.336 262.620,286.200 262.400 C 286.064 262.180,285.524 262.000,285.000 262.000 C 284.476 262.000,283.936 261.820,283.800 261.600 C 283.664 261.380,283.201 261.200,282.771 261.200 C 282.341 261.200,281.677 261.030,281.295 260.821 C 279.260 259.713,276.264 258.400,275.767 258.400 C 275.455 258.400,275.200 258.220,275.200 258.000 C 275.200 257.780,274.930 257.600,274.600 257.600 C 274.270 257.600,274.000 257.420,274.000 257.200 C 274.000 256.980,273.730 256.800,273.400 256.800 C 273.070 256.800,272.800 256.620,272.800 256.400 C 272.800 256.180,272.570 256.000,272.288 256.000 C 272.007 256.000,271.517 255.640,271.200 255.200 C 270.883 254.760,270.393 254.400,270.112 254.400 C 269.830 254.400,269.600 254.220,269.600 254.000 C 269.600 253.780,269.418 253.600,269.196 253.600 C 268.737 253.600,258.003 242.969,257.994 242.504 C 257.990 242.337,257.450 241.591,256.794 240.846 C 256.137 240.101,255.600 239.364,255.600 239.208 C 255.600 239.052,255.150 238.401,254.600 237.762 C 254.051 237.123,253.601 236.415,253.600 236.188 C 253.600 235.962,253.240 235.517,252.800 235.200 C 252.360 234.883,252.000 234.386,252.000 234.095 C 252.000 233.804,251.640 233.180,251.200 232.708 C 250.760 232.236,250.400 231.613,250.400 231.325 C 250.400 231.036,250.220 230.800,250.000 230.800 C 249.780 230.800,249.600 230.530,249.600 230.200 C 249.600 229.870,249.420 229.600,249.200 229.600 C 248.980 229.600,248.800 229.330,248.800 229.000 C 248.800 228.670,248.664 228.400,248.498 228.400 C 248.331 228.400,247.971 227.894,247.697 227.275 C 247.424 226.656,246.840 225.764,246.400 225.292 C 245.960 224.820,245.600 224.156,245.600 223.817 C 245.600 223.478,245.420 223.200,245.200 223.200 C 244.980 223.200,244.800 222.840,244.800 222.400 C 244.800 221.960,244.620 221.600,244.400 221.600 C 244.180 221.600,244.000 221.364,244.000 221.075 C 244.000 220.787,243.640 220.164,243.200 219.692 C 242.760 219.220,242.400 218.556,242.400 218.217 C 242.400 217.878,242.220 217.600,242.000 217.600 C 241.780 217.600,241.600 217.326,241.600 216.992 C 241.600 216.658,241.150 215.671,240.600 214.800 C 240.050 213.929,239.600 213.134,239.600 213.035 C 239.600 212.694,237.001 208.600,236.700 208.467 C 236.535 208.393,236.400 207.988,236.400 207.567 C 236.400 207.145,236.220 206.800,236.000 206.800 C 235.780 206.800,235.600 206.440,235.600 206.000 C 235.600 205.560,235.442 205.200,235.249 205.200 C 235.055 205.200,234.673 204.660,234.400 204.000 C 234.127 203.340,233.745 202.800,233.551 202.800 C 233.358 202.800,233.200 202.440,233.200 202.000 C 233.200 201.560,233.020 201.200,232.800 201.200 C 232.580 201.200,232.400 200.964,232.400 200.675 C 232.400 200.387,232.040 199.764,231.600 199.292 C 231.160 198.820,230.800 198.156,230.800 197.817 C 230.800 197.478,230.620 197.200,230.400 197.200 C 230.180 197.200,230.000 196.930,230.000 196.600 C 230.000 196.270,229.820 196.000,229.600 196.000 C 229.380 196.000,229.200 195.730,229.200 195.400 C 229.200 195.070,229.020 194.800,228.800 194.800 C 228.580 194.800,228.400 194.530,228.400 194.200 C 228.400 193.870,228.250 193.600,228.068 193.600 C 227.885 193.600,227.481 193.105,227.170 192.500 C 226.860 191.895,226.289 191.109,225.903 190.753 C 225.516 190.397,225.200 189.827,225.200 189.486 C 225.200 189.146,225.065 188.807,224.900 188.733 C 224.735 188.660,224.062 187.790,223.403 186.800 C 222.745 185.810,221.918 184.730,221.566 184.400 C 221.214 184.070,220.707 183.387,220.439 182.882 C 219.414 180.948,208.628 170.000,207.747 170.000 C 207.373 170.000,207.176 169.891,207.309 169.758 C 207.606 169.460,206.278 168.114,204.400 166.810 C 203.630 166.275,202.730 165.558,202.400 165.216 C 202.070 164.874,201.305 164.340,200.700 164.030 C 200.095 163.719,199.600 163.315,199.600 163.132 C 199.600 162.950,199.364 162.800,199.075 162.800 C 198.787 162.800,198.164 162.440,197.692 162.000 C 197.220 161.560,196.571 161.200,196.250 161.200 C 195.929 161.200,195.607 161.043,195.533 160.851 C 195.353 160.379,191.381 158.400,190.613 158.400 C 190.276 158.400,190.000 158.220,190.000 158.000 C 190.000 157.780,189.550 157.600,189.000 157.600 C 188.450 157.600,188.000 157.420,188.000 157.200 C 188.000 156.980,187.640 156.800,187.200 156.800 C 186.760 156.800,186.400 156.620,186.400 156.400 C 186.400 156.180,185.860 156.000,185.200 156.000 C 184.540 156.000,184.000 155.820,184.000 155.600 C 184.000 155.380,183.471 155.200,182.824 155.200 C 182.177 155.200,181.536 155.020,181.400 154.800 C 181.264 154.580,180.431 154.400,179.548 154.400 C 177.877 154.400,176.800 153.706,176.800 152.629 C 176.800 152.283,176.620 152.000,176.400 152.000 C 176.180 152.000,176.000 151.725,176.000 151.390 C 176.000 150.770,171.778 142.389,171.274 142.008 C 171.123 141.894,170.744 141.305,170.432 140.700 C 170.120 140.095,169.715 139.600,169.532 139.600 C 169.350 139.600,169.200 139.330,169.200 139.000 C 169.200 138.670,169.020 138.400,168.800 138.400 C 168.580 138.400,168.400 138.170,168.400 137.888 C 168.400 137.607,168.040 137.117,167.600 136.800 C 167.160 136.483,166.800 135.979,166.800 135.680 C 166.800 135.382,166.080 134.446,165.200 133.600 C 164.320 132.754,163.600 131.860,163.600 131.612 C 163.600 131.006,154.771 122.400,154.150 122.400 C 154.024 122.400,153.417 121.860,152.800 121.200 C 152.183 120.540,151.508 120.000,151.299 120.000 C 151.090 120.000,150.354 119.460,149.663 118.800 C 148.972 118.140,148.218 117.600,147.987 117.600 C 147.756 117.600,147.180 117.240,146.708 116.800 C 146.236 116.360,145.613 116.000,145.325 116.000 C 145.036 116.000,144.800 115.820,144.800 115.600 C 144.800 115.380,144.440 115.200,144.000 115.200 C 143.560 115.200,143.200 115.020,143.200 114.800 C 143.200 114.580,142.855 114.400,142.433 114.400 C 142.012 114.400,141.607 114.265,141.533 114.100 C 141.317 113.613,136.352 111.200,135.567 111.200 C 135.171 111.200,134.736 111.020,134.600 110.800 C 134.464 110.580,133.949 110.400,133.456 110.400 C 132.963 110.400,132.389 110.253,132.180 110.073 C 131.829 109.771,129.673 109.208,126.500 108.590 C 125.470 108.389,125.200 108.140,125.200 107.387 C 125.200 106.865,125.032 106.024,124.827 105.519 C 124.622 105.013,124.157 103.520,123.794 102.200 C 123.431 100.880,122.968 99.487,122.767 99.105 C 122.565 98.723,122.400 98.059,122.400 97.629 C 122.400 97.199,122.220 96.736,122.000 96.600 C 121.780 96.464,121.600 96.001,121.600 95.571 C 121.600 95.141,121.420 94.432,121.200 93.995 C 120.980 93.558,120.620 92.842,120.400 92.405 C 120.180 91.968,120.000 91.338,120.000 91.005 C 120.000 90.672,119.820 90.400,119.600 90.400 C 119.380 90.400,119.200 89.860,119.200 89.200 C 119.200 88.540,119.020 88.000,118.800 88.000 C 118.580 88.000,118.400 87.640,118.400 87.200 C 118.400 86.760,118.220 86.400,118.000 86.400 C 117.780 86.400,117.600 85.860,117.600 85.200 C 117.600 84.540,117.420 84.000,117.200 84.000 C 116.980 84.000,116.800 83.640,116.800 83.200 C 116.800 82.760,116.620 82.400,116.400 82.400 C 116.180 82.400,116.000 81.961,116.000 81.424 C 116.000 80.887,115.820 80.336,115.600 80.200 C 115.380 80.064,115.200 79.618,115.200 79.210 C 115.200 78.801,115.065 78.407,114.900 78.333 C 114.735 78.260,114.214 77.390,113.743 76.400 C 109.963 68.458,108.827 66.301,108.300 66.067 C 108.135 65.993,108.000 65.658,108.000 65.321 C 108.000 64.521,105.972 60.800,105.536 60.800 C 105.351 60.800,105.200 60.440,105.200 60.000 C 105.200 59.560,105.020 59.200,104.800 59.200 C 104.580 59.200,104.400 58.880,104.400 58.488 C 104.400 58.097,104.040 57.517,103.600 57.200 C 103.160 56.883,102.800 56.343,102.800 56.000 C 102.800 55.657,102.440 55.117,102.000 54.800 C 101.560 54.483,101.200 53.903,101.200 53.512 C 101.200 53.120,101.050 52.800,100.868 52.800 C 100.685 52.800,100.281 52.305,99.970 51.700 C 99.660 51.095,99.089 50.309,98.703 49.953 C 98.316 49.597,98.000 49.102,98.000 48.853 C 98.000 48.604,97.820 48.400,97.600 48.400 C 97.380 48.400,97.200 48.202,97.200 47.960 C 97.200 47.719,96.660 47.017,96.000 46.400 C 95.340 45.783,94.800 45.155,94.800 45.003 C 94.800 44.418,86.884 36.400,86.306 36.400 C 86.079 36.400,85.603 36.084,85.247 35.697 C 84.891 35.311,84.105 34.740,83.500 34.430 C 82.895 34.119,82.400 33.715,82.400 33.532 C 82.400 33.350,82.040 33.200,81.600 33.200 C 81.160 33.200,80.800 33.020,80.800 32.800 C 80.800 32.580,80.440 32.400,80.000 32.400 C 79.560 32.400,79.199 32.265,79.197 32.100 C 79.193 31.741,77.256 30.800,76.520 30.800 C 76.234 30.800,76.000 30.620,76.000 30.400 C 76.000 30.180,75.640 30.000,75.200 30.000 C 74.760 30.000,74.400 29.820,74.400 29.600 C 74.400 29.380,74.040 29.200,73.600 29.200 C 73.160 29.200,72.800 29.020,72.800 28.800 C 72.800 28.580,72.361 28.400,71.824 28.400 C 71.287 28.400,70.736 28.220,70.600 28.000 C 70.464 27.780,69.924 27.600,69.400 27.600 C 68.876 27.600,68.336 27.420,68.200 27.200 C 68.064 26.980,67.601 26.800,67.171 26.800 C 66.741 26.800,66.077 26.632,65.695 26.427 C 64.682 25.884,59.836 24.800,58.418 24.800 C 57.748 24.800,57.200 24.620,57.200 24.400 C 57.200 24.180,56.210 24.000,55.000 24.000 C 53.790 24.000,52.800 23.820,52.800 23.600 C 52.800 23.378,51.733 23.200,50.400 23.200 C 49.067 23.200,48.000 23.022,48.000 22.800 C 48.000 22.563,46.533 22.400,44.400 22.400 C 42.267 22.400,40.800 22.237,40.800 22.000 C 40.800 21.749,38.275 21.600,34.024 21.600 C 29.937 21.600,27.149 21.759,27.000 22.000 M53.000 36.027 C 75.962 38.029,92.548 51.678,102.546 76.800 C 102.940 77.790,103.404 78.960,103.578 79.400 C 103.953 80.352,104.652 82.052,105.182 83.300 C 105.392 83.795,106.135 86.000,106.833 88.200 C 107.531 90.400,108.244 92.560,108.418 93.000 C 108.591 93.440,108.850 94.250,108.994 94.800 C 109.137 95.350,109.408 96.340,109.597 97.000 C 111.336 103.086,113.122 111.038,112.818 111.342 C 112.596 111.564,111.613 111.450,110.326 111.051 C 109.157 110.689,106.940 110.016,105.400 109.555 C 103.860 109.095,102.287 108.556,101.905 108.359 C 101.523 108.162,100.884 108.000,100.485 108.000 C 100.086 108.000,99.589 107.857,99.380 107.682 C 99.171 107.507,98.280 107.135,97.400 106.855 C 96.520 106.576,95.440 106.196,95.000 106.012 C 94.560 105.827,92.670 105.090,90.800 104.375 C 77.187 99.163,67.480 92.942,61.813 85.800 C 56.543 79.158,47.508 71.866,37.332 66.043 C 30.207 61.966,26.231 54.298,28.349 48.719 C 28.541 48.213,28.927 47.080,29.207 46.200 C 31.853 37.886,39.048 34.810,53.000 36.027 M31.172 80.056 C 46.540 84.965,64.020 102.186,70.902 119.200 C 71.125 119.750,71.450 120.560,71.626 121.000 C 71.948 121.810,72.394 123.834,73.211 128.200 C 74.056 132.719,74.757 134.973,77.686 142.600 C 77.939 143.260,79.398 146.320,80.928 149.400 C 85.130 157.860,84.370 161.200,78.245 161.200 C 70.133 161.200,61.447 165.710,52.200 174.725 C 44.782 181.957,40.811 183.759,32.322 183.749 C 26.247 183.741,24.217 182.880,22.542 179.600 L 21.623 177.800 21.611 131.887 C 21.601 91.334,21.672 85.801,22.219 84.493 C 23.793 80.726,27.507 78.886,31.172 80.056 M86.171 109.554 C 86.292 109.749,86.887 110.007,87.495 110.129 C 88.565 110.344,90.477 110.802,93.800 111.640 C 94.680 111.862,96.120 112.204,97.000 112.400 C 97.880 112.596,99.410 112.947,100.400 113.181 C 101.390 113.414,103.055 113.784,104.100 114.002 C 105.145 114.221,106.855 114.579,107.900 114.798 C 108.945 115.016,110.596 115.358,111.568 115.556 C 113.514 115.954,115.763 118.119,135.084 138.200 C 148.240 151.874,150.140 154.684,152.800 164.400 C 153.071 165.390,153.431 166.650,153.600 167.200 C 153.769 167.750,154.129 169.010,154.400 170.000 C 154.671 170.990,155.031 172.250,155.200 172.800 C 155.369 173.350,155.727 174.610,155.995 175.600 C 156.264 176.590,156.645 177.813,156.842 178.319 C 157.039 178.824,157.200 179.669,157.200 180.195 C 157.200 180.722,157.360 181.252,157.556 181.373 C 157.751 181.494,158.005 182.179,158.119 182.896 C 158.232 183.613,158.538 184.920,158.797 185.800 C 160.440 191.382,160.242 193.637,157.911 195.889 C 154.847 198.847,150.320 198.243,141.200 193.659 C 136.127 191.109,128.959 186.750,128.000 185.631 C 127.890 185.503,126.790 184.631,125.556 183.694 C 118.171 178.084,102.271 162.012,98.037 155.876 C 97.705 155.394,97.202 154.764,96.920 154.475 C 96.446 153.990,95.370 152.563,90.237 145.610 C 87.793 142.300,87.502 141.713,83.804 132.600 C 80.564 124.616,79.811 122.813,79.059 121.239 C 77.500 117.973,79.096 111.961,82.074 109.887 C 83.068 109.194,85.811 108.971,86.171 109.554 M135.081 126.856 C 135.697 127.107,136.830 127.575,137.600 127.895 C 148.744 132.533,158.796 143.143,166.180 158.060 C 168.986 163.729,169.334 165.058,169.357 170.200 C 169.419 183.421,166.920 186.997,163.626 178.400 C 161.732 173.456,161.752 173.507,161.200 172.200 C 160.639 170.872,160.053 169.420,159.587 168.200 C 159.281 167.399,158.497 165.541,157.434 163.100 C 150.584 147.365,146.444 141.579,135.200 132.024 C 131.636 128.995,131.373 128.617,131.947 127.356 C 132.427 126.303,133.360 126.154,135.081 126.856 M98.036 162.091 C 105.108 170.064,115.495 180.389,123.509 187.414 C 125.329 189.010,125.547 189.614,124.586 190.411 C 124.142 190.780,123.728 190.808,123.086 190.513 C 114.499 186.569,110.198 183.654,103.501 177.243 C 101.202 175.042,96.800 169.384,96.800 168.630 C 96.800 168.499,96.422 167.538,95.960 166.496 C 95.498 165.453,94.937 164.150,94.713 163.600 C 94.490 163.050,94.148 162.287,93.953 161.905 C 93.535 161.084,93.491 159.842,93.867 159.467 C 94.583 158.750,95.690 159.447,98.036 162.091 M183.998 169.423 C 191.384 172.538,201.705 178.214,203.200 179.984 C 203.310 180.114,204.210 180.839,205.200 181.595 C 208.247 183.921,212.737 188.426,215.771 192.200 C 218.330 195.383,224.400 204.074,224.400 204.555 C 224.400 204.654,225.360 206.325,226.533 208.268 C 227.706 210.211,230.229 214.590,232.141 218.000 C 237.066 226.787,237.300 227.178,240.476 231.927 C 245.253 239.067,251.095 246.491,256.270 251.998 C 261.213 257.257,261.672 258.619,259.301 260.990 C 257.719 262.572,256.867 262.448,246.600 259.134 C 244.620 258.495,242.687 257.798,242.305 257.586 C 241.923 257.374,241.336 257.200,241.000 257.200 C 240.664 257.200,240.077 257.034,239.695 256.831 C 239.313 256.628,237.470 255.877,235.600 255.163 C 229.868 252.973,222.916 249.747,218.648 247.298 C 213.289 244.222,210.890 242.659,206.224 239.206 C 195.384 231.183,186.460 219.406,181.063 206.000 C 180.664 205.010,180.184 203.840,179.995 203.400 C 179.807 202.960,179.423 201.880,179.143 201.000 C 178.863 200.120,178.523 199.220,178.389 199.000 C 178.254 198.780,177.911 197.790,177.626 196.800 C 177.341 195.810,176.965 194.550,176.792 194.000 C 176.618 193.450,176.268 192.100,176.013 191.000 C 175.758 189.900,175.397 188.370,175.212 187.600 C 171.270 171.268,174.166 165.276,183.998 169.423 M90.268 178.232 C 91.635 179.599,91.151 183.045,88.810 188.600 C 88.625 189.040,87.992 190.660,87.403 192.200 C 84.369 200.136,77.948 212.515,74.850 216.400 C 74.411 216.950,73.188 218.570,72.132 220.000 C 68.719 224.621,64.369 229.289,60.400 232.587 C 55.822 236.393,55.048 236.640,52.396 235.149 C 49.263 233.389,49.283 231.846,52.567 222.129 C 56.267 211.178,57.302 209.174,61.806 204.244 C 62.029 204.000,65.089 200.654,68.606 196.808 C 72.123 192.962,75.810 188.927,76.800 187.840 C 87.564 176.024,87.854 175.818,90.268 178.232 M142.529 201.597 C 145.758 203.061,149.950 204.207,154.200 204.788 C 163.681 206.083,165.569 206.622,169.458 209.145 C 173.730 211.915,177.077 215.472,185.325 226.006 C 190.310 232.372,196.559 238.880,200.800 242.119 C 202.010 243.044,203.226 244.013,203.502 244.274 C 203.779 244.534,204.364 244.862,204.802 245.001 C 205.241 245.140,205.600 245.422,205.600 245.627 C 205.600 245.832,205.793 246.000,206.028 246.000 C 206.263 246.000,207.241 246.540,208.200 247.200 C 209.159 247.860,210.050 248.400,210.180 248.400 C 210.310 248.400,211.109 248.838,211.957 249.373 C 213.687 250.465,224.326 255.863,227.400 257.209 C 229.980 258.338,231.947 259.179,233.200 259.687 C 233.750 259.911,234.513 260.252,234.895 260.447 C 235.277 260.641,235.864 260.800,236.200 260.800 C 236.536 260.800,237.123 260.971,237.505 261.181 C 238.825 261.905,243.944 263.425,248.400 264.417 C 252.446 265.317,253.946 266.652,254.113 269.505 L 254.200 271.000 251.000 271.138 C 245.571 271.372,237.027 270.108,228.712 267.840 C 226.608 267.266,212.643 261.458,207.000 258.810 C 205.680 258.190,203.700 257.286,202.600 256.801 C 195.438 253.642,173.121 242.472,171.400 241.185 C 171.180 241.020,170.325 240.506,169.500 240.043 C 168.675 239.579,167.325 238.818,166.500 238.351 C 159.839 234.579,151.493 227.806,148.572 223.800 C 147.930 222.920,147.302 222.110,147.176 222.000 C 145.977 220.951,142.177 214.325,140.061 209.595 C 136.242 201.056,136.868 199.030,142.529 201.597 " stroke="none" fill="#4c4c6c" fill-rule="evenodd"></path><path id="path2" d="M177.400 168.494 C 174.654 169.481,174.345 170.359,174.548 176.600 C 174.744 182.604,175.007 184.435,176.731 191.800 C 179.277 202.678,187.666 219.823,193.953 226.999 C 196.627 230.050,202.761 235.923,205.274 237.838 C 206.664 238.897,207.890 239.861,208.000 239.981 C 208.547 240.579,211.986 242.800,212.365 242.800 C 212.604 242.800,212.800 242.980,212.800 243.200 C 212.800 243.420,212.997 243.600,213.238 243.600 C 213.479 243.600,214.154 243.939,214.738 244.353 C 219.052 247.411,233.058 254.011,240.000 256.258 C 240.990 256.578,242.160 257.002,242.600 257.200 C 243.040 257.397,244.660 257.952,246.200 258.432 C 247.740 258.912,249.360 259.441,249.800 259.607 C 250.240 259.773,251.410 260.127,252.400 260.393 C 253.390 260.660,254.513 261.040,254.895 261.239 C 259.363 263.561,261.606 258.411,257.846 254.462 C 254.644 251.098,249.642 245.303,247.601 242.590 C 246.612 241.276,245.703 240.110,245.582 240.000 C 245.461 239.890,244.929 239.170,244.400 238.400 C 243.871 237.630,243.325 236.910,243.186 236.800 C 242.059 235.909,235.461 225.170,229.914 215.200 C 229.364 214.210,228.528 212.725,228.057 211.900 C 227.585 211.075,226.840 209.770,226.400 209.000 C 225.960 208.230,225.254 206.989,224.830 206.241 C 223.262 203.474,217.073 194.353,215.808 192.946 C 215.584 192.696,214.326 191.256,213.014 189.746 C 208.948 185.066,201.190 178.706,196.203 175.963 C 190.349 172.744,179.401 167.785,178.691 168.032 C 178.641 168.049,178.060 168.257,177.400 168.494 M138.608 201.449 C 137.940 202.117,138.077 204.167,138.842 204.980 C 139.039 205.189,139.200 205.596,139.200 205.884 C 139.200 206.710,141.979 212.747,143.857 216.000 C 150.097 226.812,157.022 232.736,175.000 242.643 C 177.994 244.293,193.432 251.972,198.000 254.083 C 199.870 254.948,202.345 256.093,203.500 256.628 C 208.327 258.863,210.436 259.804,214.200 261.405 C 214.860 261.686,216.210 262.273,217.200 262.710 C 224.069 265.742,226.116 266.553,229.069 267.409 C 234.913 269.102,245.888 270.790,251.100 270.797 L 253.600 270.800 253.600 269.586 C 253.600 266.926,251.932 265.648,247.185 264.673 C 244.464 264.113,236.771 261.755,234.500 260.785 C 234.005 260.573,233.195 260.238,232.700 260.041 C 223.581 256.401,211.921 250.377,204.830 245.642 C 201.185 243.207,200.689 242.829,197.690 240.200 C 193.033 236.117,189.813 232.526,182.627 223.400 C 175.925 214.888,168.597 208.000,166.246 208.000 C 165.916 208.000,165.549 207.841,165.430 207.648 C 165.082 207.085,160.827 206.141,156.200 205.600 C 154.440 205.394,152.100 205.030,151.000 204.791 C 149.900 204.551,148.413 204.256,147.696 204.134 C 146.979 204.012,146.294 203.751,146.173 203.556 C 146.052 203.360,145.648 203.194,145.276 203.187 C 144.904 203.181,143.525 202.641,142.210 201.987 C 139.420 200.601,139.451 200.606,138.608 201.449 " stroke="none" fill="#fa044c" fill-rule="evenodd"></path><path id="path3" d="M175.902 168.702 C 173.183 170.388,172.903 178.036,175.212 187.600 C 175.397 188.370,175.758 189.900,176.013 191.000 C 176.268 192.100,176.618 193.450,176.792 194.000 C 176.965 194.550,177.341 195.810,177.626 196.800 C 177.911 197.790,178.254 198.780,178.389 199.000 C 178.523 199.220,178.863 200.120,179.143 201.000 C 179.423 201.880,179.807 202.960,179.995 203.400 C 180.184 203.840,180.664 205.010,181.063 206.000 C 186.460 219.406,195.384 231.183,206.224 239.206 C 210.890 242.659,213.289 244.222,218.648 247.298 C 222.916 249.747,229.868 252.973,235.600 255.163 C 237.470 255.877,239.313 256.628,239.695 256.831 C 240.077 257.034,240.664 257.200,241.000 257.200 C 241.336 257.200,241.923 257.374,242.305 257.586 C 242.687 257.798,244.620 258.495,246.600 259.134 C 256.867 262.448,257.719 262.572,259.301 260.990 C 261.672 258.619,261.213 257.257,256.270 251.998 C 251.095 246.491,245.253 239.067,240.476 231.927 C 237.300 227.178,237.066 226.787,232.141 218.000 C 230.229 214.590,227.706 210.211,226.533 208.268 C 225.360 206.325,224.400 204.654,224.400 204.555 C 224.400 204.074,218.330 195.383,215.771 192.200 C 212.737 188.426,208.247 183.921,205.200 181.595 C 204.210 180.839,203.310 180.114,203.200 179.984 C 202.882 179.607,199.630 177.454,196.800 175.746 C 191.861 172.765,181.365 167.987,179.812 168.014 C 179.365 168.021,180.260 168.527,181.800 169.137 C 186.731 171.090,191.325 173.266,196.203 175.960 C 201.219 178.729,208.952 185.071,213.014 189.746 C 214.326 191.256,215.584 192.696,215.808 192.946 C 217.073 194.353,223.262 203.474,224.830 206.241 C 225.254 206.989,225.960 208.230,226.400 209.000 C 226.840 209.770,227.585 211.075,228.057 211.900 C 228.528 212.725,229.364 214.210,229.914 215.200 C 235.461 225.170,242.059 235.909,243.186 236.800 C 243.325 236.910,243.871 237.630,244.400 238.400 C 244.929 239.170,245.461 239.890,245.582 240.000 C 245.703 240.110,246.612 241.276,247.601 242.590 C 249.642 245.303,254.644 251.098,257.846 254.462 C 261.606 258.411,259.363 263.561,254.895 261.239 C 254.513 261.040,253.390 260.660,252.400 260.393 C 251.410 260.127,250.240 259.773,249.800 259.607 C 249.360 259.441,247.740 258.912,246.200 258.432 C 244.660 257.952,243.040 257.397,242.600 257.200 C 242.160 257.002,240.990 256.578,240.000 256.258 C 233.058 254.011,219.052 247.411,214.738 244.353 C 214.154 243.939,213.479 243.600,213.238 243.600 C 212.997 243.600,212.800 243.420,212.800 243.200 C 212.800 242.980,212.604 242.800,212.365 242.800 C 211.986 242.800,208.547 240.579,208.000 239.981 C 207.890 239.861,206.664 238.897,205.274 237.838 C 202.761 235.923,196.627 230.050,193.953 226.999 C 187.666 219.823,179.277 202.678,176.731 191.800 C 173.325 177.250,173.536 169.882,177.400 168.494 C 178.263 168.184,178.375 168.057,177.800 168.042 C 177.360 168.031,176.506 168.328,175.902 168.702 M138.229 201.029 C 137.169 202.089,137.594 204.079,140.061 209.595 C 142.177 214.325,145.977 220.951,147.176 222.000 C 147.302 222.110,147.930 222.920,148.572 223.800 C 151.493 227.806,159.839 234.579,166.500 238.351 C 167.325 238.818,168.675 239.579,169.500 240.043 C 170.325 240.506,171.180 241.020,171.400 241.185 C 173.121 242.472,195.438 253.642,202.600 256.801 C 203.700 257.286,205.680 258.190,207.000 258.810 C 212.643 261.458,226.608 267.266,228.712 267.840 C 237.027 270.108,245.571 271.372,251.000 271.138 L 254.200 271.000 254.113 269.505 C 253.946 266.652,252.446 265.317,248.400 264.417 C 243.944 263.425,238.825 261.905,237.505 261.181 C 237.123 260.971,236.536 260.800,236.200 260.800 C 235.864 260.800,235.277 260.641,234.895 260.447 C 234.513 260.252,233.750 259.911,233.200 259.687 C 231.947 259.179,229.980 258.338,227.400 257.209 C 224.326 255.863,213.687 250.465,211.957 249.373 C 211.109 248.838,210.310 248.400,210.180 248.400 C 210.050 248.400,209.159 247.860,208.200 247.200 C 207.241 246.540,206.263 246.000,206.028 246.000 C 205.793 246.000,205.600 245.832,205.600 245.627 C 205.600 245.422,205.241 245.140,204.802 245.001 C 204.364 244.862,203.779 244.534,203.502 244.274 C 203.226 244.013,202.010 243.044,200.800 242.119 C 196.559 238.880,190.310 232.372,185.325 226.006 C 177.077 215.472,173.730 211.915,169.458 209.145 C 165.569 206.622,163.681 206.083,154.200 204.788 C 149.950 204.207,145.758 203.061,142.529 201.597 C 139.496 200.222,139.089 200.168,138.229 201.029 M142.210 201.987 C 143.525 202.641,144.904 203.181,145.276 203.187 C 145.648 203.194,146.052 203.360,146.173 203.556 C 146.294 203.751,146.979 204.012,147.696 204.134 C 148.413 204.256,149.900 204.551,151.000 204.791 C 152.100 205.030,154.440 205.394,156.200 205.600 C 160.827 206.141,165.082 207.085,165.430 207.648 C 165.549 207.841,165.916 208.000,166.246 208.000 C 168.597 208.000,175.925 214.888,182.627 223.400 C 190.707 233.661,194.108 237.322,200.424 242.553 C 205.966 247.144,221.573 255.600,232.700 260.041 C 233.195 260.238,234.005 260.573,234.500 260.785 C 236.771 261.755,244.464 264.113,247.185 264.673 C 251.932 265.648,253.600 266.926,253.600 269.586 L 253.600 270.800 251.100 270.797 C 245.888 270.790,234.913 269.102,229.069 267.409 C 226.116 266.553,224.069 265.742,217.200 262.710 C 216.210 262.273,214.860 261.686,214.200 261.405 C 210.436 259.804,208.327 258.863,203.500 256.628 C 202.345 256.093,199.870 254.948,198.000 254.083 C 193.432 251.972,177.994 244.293,175.000 242.643 C 157.022 232.736,150.097 226.812,143.857 216.000 C 141.979 212.747,139.200 206.710,139.200 205.884 C 139.200 205.596,139.039 205.189,138.842 204.980 C 138.077 204.167,137.940 202.117,138.608 201.449 C 139.451 200.606,139.420 200.601,142.210 201.987 " stroke="none" fill="#b0245c" fill-rule="evenodd"></path><path id="path4" d="M41.600 36.049 C 35.770 36.992,30.857 41.017,29.207 46.200 C 28.927 47.080,28.541 48.213,28.349 48.719 C 26.231 54.298,30.207 61.966,37.332 66.043 C 47.508 71.866,56.543 79.158,61.813 85.800 C 67.480 92.942,77.187 99.163,90.800 104.375 C 92.670 105.090,94.560 105.827,95.000 106.012 C 95.440 106.196,96.520 106.576,97.400 106.855 C 98.280 107.135,99.171 107.507,99.380 107.682 C 99.589 107.857,100.086 108.000,100.485 108.000 C 100.884 108.000,101.523 108.162,101.905 108.359 C 102.287 108.556,103.860 109.095,105.400 109.555 C 106.940 110.016,109.157 110.689,110.326 111.051 C 111.613 111.450,112.596 111.564,112.818 111.342 C 113.122 111.038,111.336 103.086,109.597 97.000 C 109.408 96.340,109.137 95.350,108.994 94.800 C 108.850 94.250,108.591 93.440,108.418 93.000 C 108.244 92.560,107.531 90.400,106.833 88.200 C 106.135 86.000,105.392 83.795,105.182 83.300 C 104.652 82.052,103.953 80.352,103.578 79.400 C 103.404 78.960,102.940 77.790,102.546 76.800 C 95.115 58.130,82.179 44.090,67.600 38.874 C 60.724 36.413,47.936 35.024,41.600 36.049 M51.177 36.408 C 58.497 37.055,61.271 37.560,66.800 39.251 C 69.208 39.988,75.943 43.060,76.400 43.630 C 76.510 43.768,77.050 44.115,77.600 44.403 C 81.695 46.542,91.053 56.331,93.843 61.395 C 94.087 61.838,95.064 63.460,96.014 65.000 C 98.212 68.562,101.840 76.239,103.766 81.400 C 104.587 83.600,105.606 86.279,106.029 87.353 C 106.453 88.428,106.800 89.555,106.800 89.859 C 106.800 90.162,106.962 90.723,107.161 91.105 C 107.360 91.487,107.737 92.610,108.000 93.600 C 108.263 94.590,108.640 95.713,108.839 96.095 C 109.038 96.477,109.200 97.231,109.200 97.771 C 109.200 98.311,109.360 98.852,109.556 98.973 C 109.751 99.094,110.008 99.779,110.127 100.496 C 110.245 101.213,110.535 102.565,110.771 103.500 C 112.817 111.608,112.821 111.569,109.919 110.444 C 109.413 110.248,107.110 109.506,104.800 108.796 C 102.490 108.086,100.240 107.363,99.800 107.191 C 99.360 107.019,98.010 106.518,96.800 106.079 C 79.109 99.652,69.011 93.720,62.630 86.006 C 58.848 81.436,54.321 76.989,50.812 74.400 C 50.067 73.850,48.994 73.025,48.429 72.567 C 46.636 71.116,42.733 68.600,38.600 66.232 C 31.016 61.888,29.008 58.866,29.010 51.800 C 29.013 40.369,36.575 35.118,51.177 36.408 M26.200 80.356 C 24.264 81.250,23.045 82.516,22.219 84.493 C 21.673 85.801,21.600 91.342,21.600 131.792 L 21.600 177.609 22.469 179.457 C 23.595 181.853,26.239 183.623,28.578 183.547 C 30.184 183.495,30.178 183.491,28.033 183.080 C 25.259 182.549,23.223 180.639,22.500 177.890 C 21.814 175.281,21.771 88.501,22.454 85.677 C 23.537 81.201,27.590 79.359,32.686 81.026 C 35.136 81.828,42.000 85.224,42.000 85.634 C 42.000 85.806,42.359 86.060,42.798 86.199 C 43.236 86.338,43.826 86.666,44.108 86.926 C 44.389 87.187,45.425 88.023,46.410 88.784 C 53.021 93.897,62.044 104.027,65.960 110.731 C 70.275 118.121,71.463 121.283,72.821 129.000 C 73.272 131.561,75.074 137.714,76.013 139.900 C 76.226 140.395,76.557 141.205,76.749 141.700 C 77.423 143.435,78.735 146.244,81.212 151.253 C 84.769 158.446,83.693 160.789,76.828 160.798 C 75.854 160.799,74.504 160.968,73.828 161.173 C 73.153 161.378,71.790 161.767,70.800 162.038 C 64.764 163.689,59.320 167.207,51.992 174.193 C 48.873 177.167,46.084 179.600,45.794 179.600 C 45.504 179.600,45.207 179.735,45.133 179.900 C 44.806 180.638,40.613 182.312,37.000 183.147 C 35.551 183.482,35.513 183.521,36.600 183.554 C 40.686 183.680,46.238 180.538,52.200 174.725 C 61.447 165.710,70.133 161.200,78.245 161.200 C 84.370 161.200,85.130 157.860,80.928 149.400 C 79.398 146.320,77.939 143.260,77.686 142.600 C 74.757 134.973,74.056 132.719,73.211 128.200 C 72.394 123.834,71.948 121.810,71.626 121.000 C 71.450 120.560,71.125 119.750,70.902 119.200 C 64.769 104.040,47.726 86.164,34.800 81.334 C 29.426 79.327,28.627 79.236,26.200 80.356 M82.074 109.887 C 79.096 111.961,77.500 117.973,79.059 121.239 C 79.811 122.813,80.564 124.616,83.804 132.600 C 87.502 141.713,87.793 142.300,90.237 145.610 C 95.370 152.563,96.446 153.990,96.920 154.475 C 97.202 154.764,97.705 155.394,98.037 155.876 C 102.271 162.012,118.171 178.084,125.556 183.694 C 126.790 184.631,127.890 185.503,128.000 185.631 C 128.110 185.759,129.574 186.786,131.253 187.912 C 151.561 201.537,163.167 200.647,158.797 185.800 C 158.538 184.920,158.232 183.613,158.119 182.896 C 158.005 182.179,157.751 181.494,157.556 181.373 C 157.360 181.252,157.200 180.722,157.200 180.195 C 157.200 179.669,157.039 178.824,156.842 178.319 C 156.645 177.813,156.264 176.590,155.995 175.600 C 155.727 174.610,155.369 173.350,155.200 172.800 C 155.031 172.250,154.671 170.990,154.400 170.000 C 154.129 169.010,153.769 167.750,153.600 167.200 C 153.431 166.650,153.071 165.390,152.800 164.400 C 150.140 154.684,148.240 151.874,135.084 138.200 C 115.763 118.119,113.514 115.954,111.568 115.556 C 110.596 115.358,108.945 115.016,107.900 114.798 C 106.855 114.579,105.145 114.221,104.100 114.002 C 103.055 113.784,101.390 113.414,100.400 113.181 C 99.410 112.947,97.880 112.596,97.000 112.400 C 96.120 112.204,94.680 111.862,93.800 111.640 C 90.477 110.802,88.565 110.344,87.495 110.129 C 86.887 110.007,86.292 109.749,86.171 109.554 C 85.811 108.971,83.068 109.194,82.074 109.887 M86.800 110.333 C 90.963 111.521,96.545 112.878,102.600 114.176 C 106.340 114.978,110.300 115.834,111.400 116.079 C 112.728 116.375,113.803 116.942,114.600 117.766 C 115.260 118.448,120.501 123.865,126.246 129.803 C 150.872 155.254,148.923 152.152,155.652 176.600 C 155.895 177.480,156.231 178.650,156.400 179.200 C 156.569 179.750,156.929 181.010,157.200 182.000 C 157.471 182.990,157.831 184.250,158.000 184.800 C 160.326 192.372,159.497 195.650,154.871 197.177 C 150.782 198.526,135.140 190.923,125.031 182.674 C 114.557 174.126,103.740 162.774,95.234 151.400 C 93.424 148.980,91.711 146.713,91.428 146.362 C 90.185 144.820,87.600 140.806,87.600 140.417 C 87.600 140.181,87.417 139.677,87.193 139.295 C 86.970 138.913,85.059 134.370,82.947 129.200 C 77.953 116.972,77.818 114.051,82.089 110.623 C 83.439 109.540,83.916 109.511,86.800 110.333 M131.947 127.356 C 131.373 128.617,131.636 128.995,135.200 132.024 C 146.444 141.579,150.584 147.365,157.434 163.100 C 158.497 165.541,159.281 167.399,159.587 168.200 C 160.053 169.420,160.639 170.872,161.200 172.200 C 161.752 173.507,161.732 173.456,163.626 178.400 C 166.920 186.997,169.419 183.421,169.357 170.200 C 169.334 165.058,168.986 163.729,166.180 158.060 C 158.796 143.143,148.744 132.533,137.600 127.895 C 134.361 126.547,133.925 126.400,133.173 126.400 C 132.728 126.400,132.192 126.818,131.947 127.356 M140.600 129.863 C 154.440 137.041,168.815 157.594,168.793 170.173 C 168.771 182.589,166.923 185.701,164.067 178.132 C 163.334 176.189,162.569 174.195,162.367 173.700 C 162.165 173.205,161.820 172.350,161.600 171.800 C 161.380 171.250,160.996 170.305,160.746 169.700 C 160.497 169.095,160.160 168.240,159.997 167.800 C 159.834 167.360,159.296 166.100,158.800 165.000 C 158.304 163.900,157.763 162.640,157.598 162.200 C 157.271 161.328,155.536 157.547,153.515 153.300 C 150.090 146.103,143.228 137.883,135.200 131.360 C 129.319 126.582,132.547 125.687,140.600 129.863 M93.867 159.467 C 93.491 159.842,93.535 161.084,93.953 161.905 C 94.148 162.287,94.490 163.050,94.713 163.600 C 94.937 164.150,95.498 165.453,95.960 166.496 C 96.422 167.538,96.800 168.499,96.800 168.630 C 96.800 169.384,101.202 175.042,103.501 177.243 C 110.198 183.654,114.499 186.569,123.086 190.513 C 123.728 190.808,124.142 190.780,124.586 190.411 C 125.547 189.614,125.329 189.010,123.509 187.414 C 115.495 180.389,105.108 170.064,98.036 162.091 C 95.690 159.447,94.583 158.750,93.867 159.467 M97.840 162.700 C 101.303 166.644,115.334 180.692,120.697 185.586 C 123.848 188.460,124.695 189.444,124.363 189.844 C 124.083 190.182,123.698 190.243,123.266 190.018 C 122.900 189.828,121.416 189.135,119.969 188.478 C 109.081 183.533,99.816 174.385,95.762 164.575 C 93.251 158.499,93.753 158.046,97.840 162.700 M85.314 178.700 C 83.929 180.068,81.752 182.404,76.800 187.840 C 75.810 188.927,72.123 192.962,68.606 196.808 C 65.089 200.654,62.029 204.000,61.806 204.244 C 57.302 209.174,56.267 211.178,52.567 222.129 C 49.283 231.846,49.263 233.389,52.396 235.149 C 55.048 236.640,55.822 236.393,60.400 232.587 C 64.369 229.289,68.719 224.621,72.132 220.000 C 73.188 218.570,74.411 216.950,74.850 216.400 C 77.948 212.515,84.369 200.136,87.403 192.200 C 87.992 190.660,88.625 189.040,88.810 188.600 C 92.625 179.546,90.513 173.567,85.314 178.700 M89.622 178.338 C 91.278 179.678,90.882 181.643,86.785 192.400 C 85.099 196.827,79.876 207.654,78.374 209.838 C 77.728 210.776,77.200 211.659,77.200 211.800 C 77.200 215.359,58.342 235.200,54.959 235.200 C 49.844 235.200,49.504 232.988,53.015 222.541 C 57.258 209.913,59.339 206.856,74.200 191.426 C 74.640 190.969,77.044 188.346,79.541 185.598 C 87.073 177.308,87.750 176.821,89.622 178.338 M31.500 183.889 C 32.215 183.978,33.385 183.978,34.100 183.889 C 34.815 183.801,34.230 183.728,32.800 183.728 C 31.370 183.728,30.785 183.801,31.500 183.889 " stroke="none" fill="#747c9c" fill-rule="evenodd"></path></g></svg>